<mxfile host="app.diagrams.net" modified="2023-08-09T07:21:10.570Z" agent="Mozilla/5.0 (X11; Ubuntu; Linux x86_64; rv:105.0) Gecko/20100101 Firefox/105.0" etag="NXUCXf8v4OW6VZmh6YXz" version="21.6.6" type="device">
  <diagram name="Page-1" id="aGrNsAUD6rLRG3-fpc4p">
    <mxGraphModel dx="1367" dy="795" grid="1" gridSize="10" guides="1" tooltips="1" connect="1" arrows="1" fold="1" page="1" pageScale="1" pageWidth="850" pageHeight="1100" math="0" shadow="0">
      <root>
        <mxCell id="0" />
        <mxCell id="1" parent="0" />
        <mxCell id="Dw3qF6tHwgRVVZFkppPR-229" value="" style="rounded=0;whiteSpace=wrap;html=1;strokeWidth=3;fillColor=none;" parent="1" vertex="1">
          <mxGeometry x="5" y="120" width="845" height="800" as="geometry" />
        </mxCell>
        <mxCell id="Dw3qF6tHwgRVVZFkppPR-96" value="" style="rounded=0;whiteSpace=wrap;html=1;strokeWidth=3;" parent="1" vertex="1">
          <mxGeometry x="42" y="680" width="718" height="60" as="geometry" />
        </mxCell>
        <mxCell id="Dw3qF6tHwgRVVZFkppPR-97" value="" style="rounded=0;whiteSpace=wrap;html=1;strokeWidth=3;fillColor=#ffe6cc;strokeColor=default;" parent="1" vertex="1">
          <mxGeometry x="42" y="680" width="128" height="60" as="geometry" />
        </mxCell>
        <mxCell id="Dw3qF6tHwgRVVZFkppPR-99" value="" style="rounded=0;whiteSpace=wrap;html=1;strokeWidth=3;fillColor=#ffe6cc;strokeColor=default;" parent="1" vertex="1">
          <mxGeometry x="162" y="680" width="60" height="60" as="geometry" />
        </mxCell>
        <mxCell id="Dw3qF6tHwgRVVZFkppPR-100" value="" style="rounded=0;whiteSpace=wrap;html=1;strokeWidth=3;fillColor=#ffe6cc;strokeColor=default;" parent="1" vertex="1">
          <mxGeometry x="222" y="680" width="60" height="60" as="geometry" />
        </mxCell>
        <mxCell id="Dw3qF6tHwgRVVZFkppPR-101" value="" style="rounded=0;whiteSpace=wrap;html=1;strokeWidth=3;fillColor=#ffe6cc;strokeColor=default;" parent="1" vertex="1">
          <mxGeometry x="282" y="680" width="60" height="60" as="geometry" />
        </mxCell>
        <mxCell id="Dw3qF6tHwgRVVZFkppPR-102" value="" style="rounded=0;whiteSpace=wrap;html=1;strokeWidth=3;fillColor=#ffe6cc;strokeColor=default;" parent="1" vertex="1">
          <mxGeometry x="342" y="680" width="60" height="60" as="geometry" />
        </mxCell>
        <mxCell id="Dw3qF6tHwgRVVZFkppPR-103" value="" style="rounded=0;whiteSpace=wrap;html=1;strokeWidth=3;fillColor=#ffe6cc;strokeColor=default;" parent="1" vertex="1">
          <mxGeometry x="402" y="680" width="60" height="60" as="geometry" />
        </mxCell>
        <mxCell id="Dw3qF6tHwgRVVZFkppPR-104" value="" style="rounded=0;whiteSpace=wrap;html=1;strokeWidth=3;fillColor=#ffe6cc;strokeColor=default;" parent="1" vertex="1">
          <mxGeometry x="462" y="680" width="60" height="60" as="geometry" />
        </mxCell>
        <mxCell id="Dw3qF6tHwgRVVZFkppPR-105" value="" style="rounded=0;whiteSpace=wrap;html=1;strokeWidth=3;fillColor=#ffe6cc;strokeColor=default;" parent="1" vertex="1">
          <mxGeometry x="522" y="680" width="60" height="60" as="geometry" />
        </mxCell>
        <mxCell id="Dw3qF6tHwgRVVZFkppPR-106" value="" style="rounded=0;whiteSpace=wrap;html=1;strokeWidth=3;fillColor=#ffe6cc;strokeColor=default;" parent="1" vertex="1">
          <mxGeometry x="582" y="680" width="60" height="60" as="geometry" />
        </mxCell>
        <mxCell id="Dw3qF6tHwgRVVZFkppPR-109" value="" style="rounded=0;whiteSpace=wrap;html=1;strokeWidth=3;fillColor=#ffe6cc;strokeColor=default;" parent="1" vertex="1">
          <mxGeometry x="642" y="680" width="122" height="60" as="geometry" />
        </mxCell>
        <mxCell id="Dw3qF6tHwgRVVZFkppPR-112" value="&lt;div&gt;&lt;font style=&quot;font-size: 24px;&quot;&gt;Size=40&lt;/font&gt;&lt;/div&gt;&lt;div&gt;&lt;font style=&quot;font-size: 24px;&quot;&gt;a=1&lt;br&gt;&lt;/font&gt;&lt;/div&gt;" style="text;html=1;strokeColor=none;fillColor=none;align=center;verticalAlign=middle;whiteSpace=wrap;rounded=0;" parent="1" vertex="1">
          <mxGeometry x="76" y="696" width="60" height="30" as="geometry" />
        </mxCell>
        <mxCell id="Dw3qF6tHwgRVVZFkppPR-133" value="" style="rounded=0;whiteSpace=wrap;html=1;strokeWidth=3;" parent="1" vertex="1">
          <mxGeometry x="70" y="390" width="730" height="60" as="geometry" />
        </mxCell>
        <mxCell id="Dw3qF6tHwgRVVZFkppPR-137" value="" style="rounded=0;whiteSpace=wrap;html=1;strokeWidth=3;fillColor=#ffe6cc;strokeColor=default;" parent="1" vertex="1">
          <mxGeometry x="60" y="390" width="210" height="60" as="geometry" />
        </mxCell>
        <mxCell id="Dw3qF6tHwgRVVZFkppPR-138" value="" style="rounded=0;whiteSpace=wrap;html=1;strokeWidth=3;fillColor=#e1d5e7;" parent="1" vertex="1">
          <mxGeometry x="260" y="390" width="260" height="60" as="geometry" />
        </mxCell>
        <mxCell id="Dw3qF6tHwgRVVZFkppPR-142" value="" style="rounded=0;whiteSpace=wrap;html=1;strokeWidth=3;fillColor=#ffe6cc;strokeColor=default;" parent="1" vertex="1">
          <mxGeometry x="490" y="390" width="310" height="60" as="geometry" />
        </mxCell>
        <mxCell id="Dw3qF6tHwgRVVZFkppPR-161" value="&lt;div&gt;&lt;font style=&quot;font-size: 18px;&quot;&gt;Free memory chunk&lt;/font&gt;&lt;/div&gt;" style="text;html=1;strokeColor=none;fillColor=none;align=center;verticalAlign=middle;whiteSpace=wrap;rounded=0;" parent="1" vertex="1">
          <mxGeometry x="70" y="394" width="175" height="30" as="geometry" />
        </mxCell>
        <mxCell id="Dw3qF6tHwgRVVZFkppPR-162" value="&lt;font style=&quot;font-size: 18px;&quot;&gt;Free memory chunk&lt;/font&gt;" style="text;html=1;strokeColor=none;fillColor=none;align=center;verticalAlign=middle;whiteSpace=wrap;rounded=0;" parent="1" vertex="1">
          <mxGeometry x="556" y="394" width="178" height="30" as="geometry" />
        </mxCell>
        <mxCell id="Dw3qF6tHwgRVVZFkppPR-163" value="&lt;font style=&quot;font-size: 18px;&quot;&gt;Allocated memory chunk&lt;/font&gt;" style="text;html=1;strokeColor=none;fillColor=none;align=center;verticalAlign=middle;whiteSpace=wrap;rounded=0;" parent="1" vertex="1">
          <mxGeometry x="267.25" y="394" width="209.5" height="30" as="geometry" />
        </mxCell>
        <mxCell id="Dw3qF6tHwgRVVZFkppPR-171" value="&lt;font style=&quot;font-size: 18px;&quot;&gt;Size=32 bytes&lt;br&gt;&lt;/font&gt;" style="text;html=1;strokeColor=none;fillColor=none;align=center;verticalAlign=middle;whiteSpace=wrap;rounded=0;" parent="1" vertex="1">
          <mxGeometry x="67" y="420" width="178" height="30" as="geometry" />
        </mxCell>
        <mxCell id="Dw3qF6tHwgRVVZFkppPR-172" value="&lt;font style=&quot;font-size: 18px;&quot;&gt;Size=32 bytes&lt;br&gt;&lt;/font&gt;" style="text;html=1;strokeColor=none;fillColor=none;align=center;verticalAlign=middle;whiteSpace=wrap;rounded=0;" parent="1" vertex="1">
          <mxGeometry x="284" y="420" width="178" height="30" as="geometry" />
        </mxCell>
        <mxCell id="Dw3qF6tHwgRVVZFkppPR-173" value="&lt;font style=&quot;font-size: 18px;&quot;&gt;Size=40 bytes&lt;br&gt;&lt;/font&gt;" style="text;html=1;strokeColor=none;fillColor=none;align=center;verticalAlign=middle;whiteSpace=wrap;rounded=0;" parent="1" vertex="1">
          <mxGeometry x="562" y="420" width="178" height="30" as="geometry" />
        </mxCell>
        <mxCell id="Dw3qF6tHwgRVVZFkppPR-174" value="&lt;font style=&quot;font-size: 18px;&quot;&gt;mmalloc(18 bytes)&lt;br&gt;&lt;/font&gt;" style="text;html=1;strokeColor=none;fillColor=none;align=center;verticalAlign=middle;whiteSpace=wrap;rounded=0;" parent="1" vertex="1">
          <mxGeometry x="20" y="160" width="178" height="30" as="geometry" />
        </mxCell>
        <mxCell id="Dw3qF6tHwgRVVZFkppPR-180" value="" style="endArrow=classic;html=1;rounded=0;exitX=0.343;exitY=1;exitDx=0;exitDy=0;entryX=0.439;entryY=0.017;entryDx=0;entryDy=0;entryPerimeter=0;strokeWidth=3;exitPerimeter=0;" parent="1" source="Dw3qF6tHwgRVVZFkppPR-174" edge="1">
          <mxGeometry width="50" height="50" relative="1" as="geometry">
            <mxPoint x="80" y="230" as="sourcePoint" />
            <mxPoint x="80.01999999999998" y="391.02" as="targetPoint" />
          </mxGeometry>
        </mxCell>
        <mxCell id="Dw3qF6tHwgRVVZFkppPR-181" value="&lt;div align=&quot;left&quot;&gt;&lt;font style=&quot;font-size: 18px;&quot;&gt;Mem. chunk size = 32 bytes&lt;/font&gt;&lt;br&gt;&lt;/div&gt;&lt;div align=&quot;left&quot;&gt;&lt;font style=&quot;font-size: 18px;&quot;&gt;Memory reqd. to&amp;nbsp; &lt;/font&gt;&lt;font style=&quot;font-size: 18px;&quot;&gt;= 16 bytes&lt;/font&gt;&lt;/div&gt;&lt;div align=&quot;left&quot;&gt;&lt;font style=&quot;font-size: 18px;&quot;&gt;store metadata &amp;nbsp;&amp;nbsp;&amp;nbsp;&amp;nbsp;&amp;nbsp; &lt;br&gt;&lt;/font&gt;&lt;/div&gt;&lt;div align=&quot;left&quot;&gt;&lt;font style=&quot;font-size: 18px;&quot;&gt;Remaining bytes = 32 - 16 = 16 bytes&lt;/font&gt;&lt;/div&gt;&lt;div align=&quot;left&quot;&gt;&lt;font style=&quot;font-size: 18px;&quot;&gt;Requested bytes = 18 bytes&lt;/font&gt;&lt;/div&gt;&lt;div align=&quot;left&quot;&gt;&lt;font style=&quot;font-size: 18px;&quot;&gt;Not enough memory!&lt;/font&gt;&lt;/div&gt;" style="text;html=1;strokeColor=none;fillColor=none;align=left;verticalAlign=middle;whiteSpace=wrap;rounded=0;" parent="1" vertex="1">
          <mxGeometry x="88.63" y="290" width="322.75" height="30" as="geometry" />
        </mxCell>
        <mxCell id="Dw3qF6tHwgRVVZFkppPR-182" value="" style="rounded=0;whiteSpace=wrap;html=1;strokeWidth=3;fillColor=#d3d7cf;" parent="1" vertex="1">
          <mxGeometry x="13" y="390" width="20" height="60" as="geometry" />
        </mxCell>
        <mxCell id="Dw3qF6tHwgRVVZFkppPR-183" value="" style="endArrow=none;html=1;rounded=0;strokeWidth=3;entryX=1;entryY=0.5;entryDx=0;entryDy=0;" parent="1" target="Dw3qF6tHwgRVVZFkppPR-182" edge="1">
          <mxGeometry width="50" height="50" relative="1" as="geometry">
            <mxPoint x="13" y="420" as="sourcePoint" />
            <mxPoint x="63" y="370" as="targetPoint" />
          </mxGeometry>
        </mxCell>
        <mxCell id="Dw3qF6tHwgRVVZFkppPR-184" value="" style="rounded=0;whiteSpace=wrap;html=1;strokeWidth=3;fillColor=#d3d7cf;" parent="1" vertex="1">
          <mxGeometry x="822" y="390" width="20" height="60" as="geometry" />
        </mxCell>
        <mxCell id="Dw3qF6tHwgRVVZFkppPR-185" value="" style="endArrow=none;html=1;rounded=0;strokeWidth=3;entryX=1;entryY=0.5;entryDx=0;entryDy=0;" parent="1" target="Dw3qF6tHwgRVVZFkppPR-184" edge="1">
          <mxGeometry width="50" height="50" relative="1" as="geometry">
            <mxPoint x="822" y="420" as="sourcePoint" />
            <mxPoint x="872" y="370" as="targetPoint" />
          </mxGeometry>
        </mxCell>
        <mxCell id="Dw3qF6tHwgRVVZFkppPR-187" value="" style="endArrow=classic;html=1;rounded=0;strokeWidth=3;" parent="1" edge="1">
          <mxGeometry width="50" height="50" relative="1" as="geometry">
            <mxPoint x="22.5" y="450" as="sourcePoint" />
            <mxPoint x="22.5" y="490" as="targetPoint" />
          </mxGeometry>
        </mxCell>
        <mxCell id="Dw3qF6tHwgRVVZFkppPR-188" value="&lt;font style=&quot;font-size: 18px;&quot;&gt;null&lt;br&gt;&lt;/font&gt;" style="text;html=1;strokeColor=none;fillColor=none;align=center;verticalAlign=middle;whiteSpace=wrap;rounded=0;" parent="1" vertex="1">
          <mxGeometry y="490" width="50" height="30" as="geometry" />
        </mxCell>
        <mxCell id="Dw3qF6tHwgRVVZFkppPR-191" value="" style="curved=1;endArrow=classic;html=1;rounded=0;strokeWidth=3;exitX=1;exitY=0.25;exitDx=0;exitDy=0;entryX=0.5;entryY=1;entryDx=0;entryDy=0;strokeColor=#f57900;" parent="1" source="Dw3qF6tHwgRVVZFkppPR-182" target="Dw3qF6tHwgRVVZFkppPR-171" edge="1">
          <mxGeometry width="50" height="50" relative="1" as="geometry">
            <mxPoint x="420" y="610" as="sourcePoint" />
            <mxPoint x="470" y="560" as="targetPoint" />
            <Array as="points">
              <mxPoint x="40" y="510" />
            </Array>
          </mxGeometry>
        </mxCell>
        <mxCell id="Dw3qF6tHwgRVVZFkppPR-192" value="" style="curved=1;endArrow=classic;html=1;rounded=0;strokeWidth=3;exitX=1;exitY=0.25;exitDx=0;exitDy=0;entryX=0.5;entryY=1;entryDx=0;entryDy=0;strokeColor=#f57900;" parent="1" target="Dw3qF6tHwgRVVZFkppPR-173" edge="1">
          <mxGeometry width="50" height="50" relative="1" as="geometry">
            <mxPoint x="149.25" y="450" as="sourcePoint" />
            <mxPoint x="265.25" y="495" as="targetPoint" />
            <Array as="points">
              <mxPoint x="390" y="540" />
            </Array>
          </mxGeometry>
        </mxCell>
        <mxCell id="Dw3qF6tHwgRVVZFkppPR-193" value="" style="curved=1;endArrow=classic;html=1;rounded=0;strokeWidth=3;exitX=1;exitY=0.25;exitDx=0;exitDy=0;entryX=0;entryY=0.25;entryDx=0;entryDy=0;strokeColor=#f57900;" parent="1" target="Dw3qF6tHwgRVVZFkppPR-184" edge="1">
          <mxGeometry width="50" height="50" relative="1" as="geometry">
            <mxPoint x="670" y="450" as="sourcePoint" />
            <mxPoint x="1191.75" y="450" as="targetPoint" />
            <Array as="points">
              <mxPoint x="800" y="500" />
            </Array>
          </mxGeometry>
        </mxCell>
        <mxCell id="Dw3qF6tHwgRVVZFkppPR-194" value="" style="endArrow=classic;html=1;rounded=0;strokeWidth=3;" parent="1" edge="1">
          <mxGeometry width="50" height="50" relative="1" as="geometry">
            <mxPoint x="830" y="390" as="sourcePoint" />
            <mxPoint x="830" y="340" as="targetPoint" />
          </mxGeometry>
        </mxCell>
        <mxCell id="Dw3qF6tHwgRVVZFkppPR-195" value="&lt;font style=&quot;font-size: 18px;&quot;&gt;null&lt;br&gt;&lt;/font&gt;" style="text;html=1;strokeColor=none;fillColor=none;align=center;verticalAlign=middle;whiteSpace=wrap;rounded=0;" parent="1" vertex="1">
          <mxGeometry x="807" y="310" width="41" height="30" as="geometry" />
        </mxCell>
        <mxCell id="Dw3qF6tHwgRVVZFkppPR-196" value="" style="curved=1;endArrow=classic;html=1;rounded=0;exitX=0.5;exitY=1;exitDx=0;exitDy=0;strokeWidth=3;strokeColor=#729fcf;" parent="1" edge="1">
          <mxGeometry width="50" height="50" relative="1" as="geometry">
            <mxPoint x="830" y="450" as="sourcePoint" />
            <mxPoint x="680" y="460" as="targetPoint" />
            <Array as="points">
              <mxPoint x="780" y="530" />
            </Array>
          </mxGeometry>
        </mxCell>
        <mxCell id="Dw3qF6tHwgRVVZFkppPR-197" value="" style="curved=1;endArrow=classic;html=1;rounded=0;exitX=0.5;exitY=1;exitDx=0;exitDy=0;strokeWidth=3;strokeColor=#729fcf;" parent="1" edge="1">
          <mxGeometry width="50" height="50" relative="1" as="geometry">
            <mxPoint x="680" y="460" as="sourcePoint" />
            <mxPoint x="150" y="460" as="targetPoint" />
            <Array as="points">
              <mxPoint x="410" y="580" />
            </Array>
          </mxGeometry>
        </mxCell>
        <mxCell id="Dw3qF6tHwgRVVZFkppPR-198" value="" style="curved=1;endArrow=classic;html=1;rounded=0;exitX=0.5;exitY=1;exitDx=0;exitDy=0;strokeWidth=3;entryX=1;entryY=1;entryDx=0;entryDy=0;strokeColor=#729fcf;" parent="1" target="Dw3qF6tHwgRVVZFkppPR-182" edge="1">
          <mxGeometry width="50" height="50" relative="1" as="geometry">
            <mxPoint x="150" y="460" as="sourcePoint" />
            <mxPoint y="470" as="targetPoint" />
            <Array as="points">
              <mxPoint x="100" y="540" />
            </Array>
          </mxGeometry>
        </mxCell>
        <mxCell id="Dw3qF6tHwgRVVZFkppPR-199" value="&lt;font style=&quot;font-size: 18px;&quot;&gt;1&lt;/font&gt;" style="ellipse;whiteSpace=wrap;html=1;aspect=fixed;strokeWidth=3;" parent="1" vertex="1">
          <mxGeometry x="40" y="280" width="30" height="30" as="geometry" />
        </mxCell>
        <mxCell id="Dw3qF6tHwgRVVZFkppPR-201" value="" style="endArrow=classic;html=1;rounded=0;strokeWidth=3;exitX=0.5;exitY=1;exitDx=0;exitDy=0;entryX=0.079;entryY=0;entryDx=0;entryDy=0;entryPerimeter=0;" parent="1" source="Dw3qF6tHwgRVVZFkppPR-174" target="Dw3qF6tHwgRVVZFkppPR-142" edge="1">
          <mxGeometry width="50" height="50" relative="1" as="geometry">
            <mxPoint x="90" y="240" as="sourcePoint" />
            <mxPoint x="580" y="390" as="targetPoint" />
            <Array as="points">
              <mxPoint x="110" y="230" />
              <mxPoint x="514" y="230" />
            </Array>
          </mxGeometry>
        </mxCell>
        <mxCell id="Dw3qF6tHwgRVVZFkppPR-202" value="&lt;font style=&quot;font-size: 18px;&quot;&gt;2&lt;/font&gt;" style="ellipse;whiteSpace=wrap;html=1;aspect=fixed;strokeWidth=3;" parent="1" vertex="1">
          <mxGeometry x="395" y="190" width="30" height="30" as="geometry" />
        </mxCell>
        <mxCell id="Dw3qF6tHwgRVVZFkppPR-203" value="&lt;div align=&quot;left&quot;&gt;&lt;font style=&quot;font-size: 18px;&quot;&gt;Mem. chunk size = 40 bytes&lt;/font&gt;&lt;br&gt;&lt;/div&gt;&lt;div align=&quot;left&quot;&gt;&lt;font style=&quot;font-size: 18px;&quot;&gt;Memory reqd. to&amp;nbsp; &lt;/font&gt;&lt;font style=&quot;font-size: 18px;&quot;&gt;= 16 bytes&lt;/font&gt;&lt;/div&gt;&lt;div align=&quot;left&quot;&gt;&lt;font style=&quot;font-size: 18px;&quot;&gt;store metadata &amp;nbsp;&amp;nbsp;&amp;nbsp;&amp;nbsp;&amp;nbsp; &lt;br&gt;&lt;/font&gt;&lt;/div&gt;&lt;div align=&quot;left&quot;&gt;&lt;font style=&quot;font-size: 18px;&quot;&gt;Remaining bytes = 40 - 16=24 bytes&lt;/font&gt;&lt;/div&gt;&lt;div align=&quot;left&quot;&gt;&lt;font style=&quot;font-size: 18px;&quot;&gt;Requested bytes = 18 bytes&lt;/font&gt;&lt;/div&gt;&lt;div align=&quot;left&quot;&gt;&lt;font style=&quot;font-size: 18px;&quot;&gt;Enough memory!&lt;/font&gt;&lt;/div&gt;" style="text;html=1;strokeColor=none;fillColor=none;align=left;verticalAlign=middle;whiteSpace=wrap;rounded=0;" parent="1" vertex="1">
          <mxGeometry x="522" y="280" width="290" height="30" as="geometry" />
        </mxCell>
        <mxCell id="Dw3qF6tHwgRVVZFkppPR-204" value="" style="endArrow=none;dashed=1;html=1;dashPattern=1 3;strokeWidth=3;rounded=0;entryX=0;entryY=1;entryDx=0;entryDy=0;" parent="1" target="Dw3qF6tHwgRVVZFkppPR-142" edge="1">
          <mxGeometry width="50" height="50" relative="1" as="geometry">
            <mxPoint x="40" y="680" as="sourcePoint" />
            <mxPoint x="90" y="630" as="targetPoint" />
          </mxGeometry>
        </mxCell>
        <mxCell id="Dw3qF6tHwgRVVZFkppPR-205" value="" style="endArrow=none;dashed=1;html=1;dashPattern=1 3;strokeWidth=3;rounded=0;exitX=1;exitY=0;exitDx=0;exitDy=0;" parent="1" source="Dw3qF6tHwgRVVZFkppPR-109" edge="1">
          <mxGeometry width="50" height="50" relative="1" as="geometry">
            <mxPoint x="50" y="690" as="sourcePoint" />
            <mxPoint x="800" y="450" as="targetPoint" />
          </mxGeometry>
        </mxCell>
        <mxCell id="Dw3qF6tHwgRVVZFkppPR-207" value="&lt;div&gt;&lt;font style=&quot;font-size: 24px;&quot;&gt;Size=40&lt;/font&gt;&lt;/div&gt;" style="text;html=1;strokeColor=none;fillColor=none;align=center;verticalAlign=middle;whiteSpace=wrap;rounded=0;" parent="1" vertex="1">
          <mxGeometry x="671" y="695" width="60" height="30" as="geometry" />
        </mxCell>
        <mxCell id="Dw3qF6tHwgRVVZFkppPR-208" value="&lt;font style=&quot;font-size: 24px;&quot;&gt;0&lt;/font&gt;" style="text;html=1;strokeColor=none;fillColor=none;align=center;verticalAlign=middle;whiteSpace=wrap;rounded=0;" parent="1" vertex="1">
          <mxGeometry x="13" y="740" width="60" height="30" as="geometry" />
        </mxCell>
        <mxCell id="Dw3qF6tHwgRVVZFkppPR-209" value="&lt;font style=&quot;font-size: 24px;&quot;&gt;8&lt;/font&gt;" style="text;html=1;strokeColor=none;fillColor=none;align=center;verticalAlign=middle;whiteSpace=wrap;rounded=0;" parent="1" vertex="1">
          <mxGeometry x="130" y="740" width="60" height="30" as="geometry" />
        </mxCell>
        <mxCell id="Dw3qF6tHwgRVVZFkppPR-210" value="&lt;font style=&quot;font-size: 24px;&quot;&gt;26&lt;/font&gt;" style="text;html=1;strokeColor=none;fillColor=none;align=center;verticalAlign=middle;whiteSpace=wrap;rounded=0;" parent="1" vertex="1">
          <mxGeometry x="425" y="740" width="60" height="30" as="geometry" />
        </mxCell>
        <mxCell id="Dw3qF6tHwgRVVZFkppPR-211" value="&lt;font style=&quot;font-size: 24px;&quot;&gt;32&lt;/font&gt;" style="text;html=1;strokeColor=none;fillColor=none;align=center;verticalAlign=middle;whiteSpace=wrap;rounded=0;" parent="1" vertex="1">
          <mxGeometry x="611" y="740" width="60" height="30" as="geometry" />
        </mxCell>
        <mxCell id="Dw3qF6tHwgRVVZFkppPR-212" value="&lt;font style=&quot;font-size: 24px;&quot;&gt;40&lt;/font&gt;" style="text;html=1;strokeColor=none;fillColor=none;align=center;verticalAlign=middle;whiteSpace=wrap;rounded=0;" parent="1" vertex="1">
          <mxGeometry x="740" y="740" width="38" height="30" as="geometry" />
        </mxCell>
        <mxCell id="Dw3qF6tHwgRVVZFkppPR-215" value="" style="endArrow=classic;startArrow=classic;html=1;rounded=0;strokeWidth=3;" parent="1" edge="1">
          <mxGeometry width="50" height="50" relative="1" as="geometry">
            <mxPoint x="160" y="776" as="sourcePoint" />
            <mxPoint x="460" y="776" as="targetPoint" />
          </mxGeometry>
        </mxCell>
        <mxCell id="Dw3qF6tHwgRVVZFkppPR-216" value="&lt;div&gt;&lt;font style=&quot;font-size: 24px;&quot;&gt;18 bytes&lt;br&gt;&lt;/font&gt;&lt;/div&gt;&lt;div&gt;&lt;font style=&quot;font-size: 24px;&quot;&gt;(requested memory)&lt;br&gt;&lt;/font&gt;&lt;/div&gt;" style="text;html=1;strokeColor=none;fillColor=none;align=center;verticalAlign=middle;whiteSpace=wrap;rounded=0;" parent="1" vertex="1">
          <mxGeometry x="174.5" y="790" width="275" height="30" as="geometry" />
        </mxCell>
        <mxCell id="Dw3qF6tHwgRVVZFkppPR-217" value="" style="endArrow=none;dashed=1;html=1;dashPattern=1 3;strokeWidth=3;rounded=0;" parent="1" edge="1">
          <mxGeometry width="50" height="50" relative="1" as="geometry">
            <mxPoint x="293" y="710" as="sourcePoint" />
            <mxPoint x="343" y="710" as="targetPoint" />
            <Array as="points">
              <mxPoint x="331" y="710" />
            </Array>
          </mxGeometry>
        </mxCell>
        <mxCell id="Dw3qF6tHwgRVVZFkppPR-218" value="" style="endArrow=none;dashed=1;html=1;dashPattern=1 3;strokeWidth=3;rounded=0;" parent="1" edge="1">
          <mxGeometry width="50" height="50" relative="1" as="geometry">
            <mxPoint x="533" y="710" as="sourcePoint" />
            <mxPoint x="583" y="710" as="targetPoint" />
            <Array as="points">
              <mxPoint x="571" y="710" />
            </Array>
          </mxGeometry>
        </mxCell>
        <mxCell id="Dw3qF6tHwgRVVZFkppPR-219" value="" style="endArrow=classic;startArrow=classic;html=1;rounded=0;strokeWidth=3;" parent="1" edge="1">
          <mxGeometry width="50" height="50" relative="1" as="geometry">
            <mxPoint x="460" y="776" as="sourcePoint" />
            <mxPoint x="642" y="776" as="targetPoint" />
          </mxGeometry>
        </mxCell>
        <mxCell id="Dw3qF6tHwgRVVZFkppPR-220" value="&lt;div&gt;&lt;font style=&quot;font-size: 24px;&quot;&gt;6 bytes&lt;br&gt;&lt;/font&gt;&lt;/div&gt;&lt;div&gt;&lt;font style=&quot;font-size: 24px;&quot;&gt;(padding to make&lt;/font&gt;&lt;/div&gt;&lt;div&gt;&lt;font style=&quot;font-size: 24px;&quot;&gt;allocation 8 bytes&lt;/font&gt;&lt;/div&gt;&lt;div&gt;&lt;font style=&quot;font-size: 24px;&quot;&gt;aligned)&lt;br&gt;&lt;/font&gt;&lt;/div&gt;" style="text;html=1;strokeColor=none;fillColor=none;align=center;verticalAlign=middle;whiteSpace=wrap;rounded=0;" parent="1" vertex="1">
          <mxGeometry x="410" y="820" width="275" height="30" as="geometry" />
        </mxCell>
        <mxCell id="Dw3qF6tHwgRVVZFkppPR-222" value="" style="endArrow=classic;startArrow=classic;html=1;rounded=0;strokeWidth=3;" parent="1" edge="1">
          <mxGeometry width="50" height="50" relative="1" as="geometry">
            <mxPoint x="40" y="776" as="sourcePoint" />
            <mxPoint x="160" y="776" as="targetPoint" />
          </mxGeometry>
        </mxCell>
        <mxCell id="Dw3qF6tHwgRVVZFkppPR-224" value="&lt;div&gt;&lt;font style=&quot;font-size: 24px;&quot;&gt;8 bytes&lt;br&gt;&lt;/font&gt;&lt;/div&gt;&lt;div&gt;&lt;font style=&quot;font-size: 24px;&quot;&gt;metadata&lt;br&gt;&lt;/font&gt;&lt;/div&gt;" style="text;html=1;strokeColor=none;fillColor=none;align=center;verticalAlign=middle;whiteSpace=wrap;rounded=0;" parent="1" vertex="1">
          <mxGeometry x="36" y="792" width="140" height="30" as="geometry" />
        </mxCell>
        <mxCell id="Dw3qF6tHwgRVVZFkppPR-225" value="" style="endArrow=classic;startArrow=classic;html=1;rounded=0;strokeWidth=3;" parent="1" edge="1">
          <mxGeometry width="50" height="50" relative="1" as="geometry">
            <mxPoint x="642" y="776" as="sourcePoint" />
            <mxPoint x="762" y="776" as="targetPoint" />
          </mxGeometry>
        </mxCell>
        <mxCell id="Dw3qF6tHwgRVVZFkppPR-228" value="&lt;div&gt;&lt;font style=&quot;font-size: 24px;&quot;&gt;8 bytes&lt;br&gt;&lt;/font&gt;&lt;/div&gt;&lt;div&gt;&lt;font style=&quot;font-size: 24px;&quot;&gt;metadata&lt;br&gt;&lt;/font&gt;&lt;/div&gt;" style="text;html=1;strokeColor=none;fillColor=none;align=center;verticalAlign=middle;whiteSpace=wrap;rounded=0;" parent="1" vertex="1">
          <mxGeometry x="650" y="792" width="140" height="30" as="geometry" />
        </mxCell>
      </root>
    </mxGraphModel>
  </diagram>
</mxfile>
